<?xml version="1.0" encoding="UTF-8"?>
<svg id="Layer_1" xmlns="http://www.w3.org/2000/svg" viewBox="0 0 200 200">
  <defs>
    <style>
      .cls-1 {
        fill: #0080ff;
      }
    </style>
  </defs><path
    class="cls-1"
    d="M24.49,129.67c15.49-3.06,31.41-1.51,47.07-2,7.92-.24,15.83-.81,23.69-1.74,7.43-.88,14.88-2.15,21.93-4.74,6-2.2,11.71-5.37,16.42-9.73s8.33-10.21,10.19-16.56c1.98-6.74,2.17-13.86,1.14-20.78s-3.37-14.4-6.53-20.98c-1.42-2.97-3.18-5.83-5.52-8.17-2.47-2.46-5.54-4.2-8.69-5.65-6.16-2.83-12.73-4.78-19.54-4.92-11.8-.25-23.66,4.4-32.15,12.6-8.82,8.52-13.33,20.77-12.91,32.95,.21,6.1,1.63,12.15,4.3,17.64s6.46,10.23,10.95,14.22c9.18,8.15,20.98,13.03,32.99,15.13,15.3,2.68,30.91,1.36,46.25-.27,3.79-.4,7.57-.82,11.36-1.23,.43-.05,.66-.51,.35-.85l-7.35-8.23-.71,.71c3.5,3.75,6.62,7.83,9.33,12.19l.08-.61-18.42,17.89c-.46,.45,.25,1.16,.71,.71l18.42-17.89c.15-.15,.19-.42,.08-.61-2.76-4.43-5.93-8.58-9.49-12.39-.44-.47-1.13,.23-.71,.71l7.35,8.23,.35-.85c-15.06,1.63-30.23,3.66-45.41,2.86-12.92-.69-25.8-3.7-36.89-10.57-10.17-6.3-18.3-15.81-21.26-27.56s-.94-24.65,5.73-34.75,17.23-16.37,28.72-18.39c5.98-1.05,12.12-.8,18,.74,3.53,.93,6.97,2.25,10.26,3.83,3.08,1.48,6.01,3.29,8.32,5.84s3.84,5.39,5.19,8.39c1.47,3.28,2.71,6.69,3.74,10.13,2.06,6.91,3.18,14.16,2.54,21.37-.59,6.71-2.7,13.35-6.6,18.88-3.65,5.17-8.76,9.19-14.33,12.12-6.21,3.27-13.04,5.16-19.92,6.39-7.45,1.33-15.04,2.01-22.59,2.5s-15.42,.62-23.14,.56-15.19-.17-22.75,.44c-3.63,.3-7.25,.77-10.82,1.47-.63,.12-.36,1.09,.27,.96h0Z"/><path
    class="cls-1"
    d="M137.25,98.87c1.22-2.94,2.86-5.73,4.86-8.21,.22-.27,.43-.6,.83-.5,.32,.08,.62,.48,.81,.73,.52,.69,1,1.44,1.49,2.15l3.05,4.41c.36,.53,1.23,.03,.86-.5l-3.66-5.29c-.7-1.01-1.96-3.33-3.52-2.27-.66,.45-1.15,1.3-1.61,1.93-.54,.74-1.05,1.5-1.53,2.28-.98,1.6-1.82,3.28-2.54,5.01-.25,.59,.72,.85,.96,.27h0Z"/><path
    class="cls-1"
    d="M130.63,49.23l.65-2.98,.31-1.42c.04-.17,.05-.41,.14-.56s.12-.13,.3-.04c.43,.2,.84,.47,1.25,.71l1.35,.77,2.7,1.54c.56,.32,1.06-.54,.5-.86l-3.08-1.76-1.54-.88c-.45-.26-.93-.61-1.47-.58-1.08,.07-1.13,1.54-1.3,2.32l-.76,3.47c-.14,.63,.83,.9,.96,.27h0Z"/><path
    class="cls-1"
    d="M86.6,46.63l-2.47-4.21-1.23-2.1c-.43-.73-.97-1.36-.5-2.2,.76-1.35,1.68-2.63,2.53-3.92,.9-1.37,1.82-2.74,2.74-4.1,.36-.53-.5-1.03-.86-.5-.99,1.46-1.97,2.93-2.94,4.4-.48,.74-.96,1.48-1.44,2.22-.42,.65-1.01,1.34-1.21,2.11-.18,.67,.12,1.3,.45,1.87,.45,.78,.91,1.54,1.36,2.31l2.72,4.63c.33,.55,1.19,.05,.86-.5h0Z"/><path class="cls-1" d="M65.52,78.33c-1.13,3.7-2.86,7.18-5.11,10.32h.86c-1.75-4.05-3.8-8.48-7.93-10.59-.57-.29-1.08,.57-.5,.86,3.97,2.03,5.89,6.34,7.57,10.23,.16,.38,.67,.27,.86,0,2.3-3.21,4.06-6.78,5.21-10.56,.19-.62-.78-.88-.96-.27h0Z"/><path
    class="cls-1"
    d="M136.49,46.7c1.48,.36,2.84,1.01,4.03,1.97l.49-.84-5.49-1.68-2.74-.84c-.86-.27-1.75-.63-2.64-.79-1.6-.3-2.08,1.73-2.55,2.84-.71,1.66-1.41,3.32-2.11,4.99-.2,.48,.51,.81,.84,.49,2.62-2.57,4.73-5.62,6.22-8.97l-.79,.1c2.33,2.4,5.22,4.18,8.4,5.21,.61,.2,.88-.77,.27-.96-3.02-.97-5.75-2.68-7.96-4.95-.2-.21-.65-.2-.79,.1-1.45,3.28-3.5,6.25-6.06,8.77l.84,.49c.63-1.51,1.27-3.02,1.91-4.53,.29-.69,.55-1.41,.9-2.07,.2-.38,.36-.55,.81-.48,.37,.05,.78,.24,1.14,.35l9.54,2.93c.45,.14,.88-.51,.49-.84-1.32-1.07-2.82-1.82-4.47-2.22-.63-.15-.89,.81-.27,.96h0Z"/><path
    class="cls-1"
    d="M136.9,98.32c.65-1.74,1.49-3.4,2.5-4.96,.51-.79,1.07-1.56,1.67-2.28,.26-.32,.61-.83,1.02-.94,.46-.13,.92,.3,1.27,.55,2.83,2.04,5.16,4.72,6.83,7.78,.31,.56,1.17,.06,.86-.5-1.93-3.57-4.88-6.96-8.45-8.97-.84-.47-1.74-.58-2.51,.08s-1.33,1.65-1.87,2.48c-1.25,1.92-2.27,3.98-3.08,6.13-.23,.6,.74,.86,.96,.27,.71-1.89,1.61-3.71,2.68-5.42,.5-.81,1.03-1.64,1.64-2.37,.36-.43,.73-.69,1.31-.48,.44,.16,.85,.47,1.23,.73,3.02,2.05,5.5,4.84,7.23,8.06l.86-.5c-.98-1.78-2.17-3.44-3.55-4.93-.65-.7-1.35-1.37-2.08-1.99s-1.56-1.39-2.45-1.78-1.67,.04-2.28,.71c-.66,.72-1.25,1.53-1.8,2.34-1.22,1.79-2.2,3.72-2.96,5.75-.23,.6,.74,.86,.96,.27h0Z"/><path
    class="cls-1"
    d="M86.13,33.46c-.96,1.09-1.82,2.25-2.56,3.49-.37,.62-.71,1.25-1.02,1.9-.29,.61-.6,1.26-.39,1.95,.18,.57,.67,1.03,1.06,1.46,.5,.55,1.02,1.08,1.55,1.6,1.1,1.06,2.28,2.04,3.51,2.95l.25-.93c-1.64,.01-2.67-1.56-3.33-2.88-.83-1.67-1.51-3.52-1.64-5.39-.24-3.35,1.05-6.71,3.47-9.04,.46-.45-.24-1.15-.71-.71-2.74,2.63-4.17,6.53-3.71,10.31,.25,2.03,1,4.1,2.02,5.88,.83,1.45,2.1,2.83,3.89,2.82,.53,0,.63-.65,.25-.93-1.04-.77-2.04-1.6-2.98-2.49-.46-.43-.91-.88-1.35-1.34-.4-.42-.94-.88-1.23-1.39-.34-.6,.14-1.3,.42-1.86s.57-1.08,.89-1.6c.67-1.1,1.44-2.14,2.29-3.1,.42-.48-.28-1.19-.71-.71h0Z"/><path
    class="cls-1"
    d="M53.54,80.35c1.19,2.99,2.85,5.84,4.98,8.27,.83,.94,2.38,1.93,3.44,.72,.49-.55,.72-1.36,.98-2.04,.31-.83,.59-1.68,.83-2.53,.52-1.88,.84-3.81,.98-5.75,.04-.55-.9-.69-.98-.13-.23,1.64-.59,3.27-1.07,4.85-.25,.81-.85,3.73-2.21,2.83-.6-.39-1.06-1.05-1.52-1.59-.53-.62-1.05-1.25-1.56-1.9-1.02-1.31-1.97-2.67-2.85-4.07-.34-.54-1.21-.04-.86,.5,1,1.58,2.08,3.1,3.24,4.57,.59,.74,1.19,1.46,1.82,2.17,.52,.58,1.08,1.28,1.89,1.46,1.71,.38,2.34-1.67,2.75-2.9,.62-1.84,1.07-3.74,1.34-5.67l-.98-.13c-.14,1.92-.48,3.82-1,5.67-.26,.92-.56,1.82-.91,2.71-.28,.7-.59,1.84-1.55,1.39-.73-.34-1.25-1.08-1.74-1.7-.56-.71-1.09-1.45-1.58-2.22-.97-1.51-1.8-3.12-2.47-4.79-.24-.59-1.2-.33-.96,.27h0Z"/><path
    class="cls-1"
    d="M14.59,139.36c1.9,.04,3.74-.36,5.46-1.16,.23-.1,.33-.48,.18-.68-1.51-2.02-4.28-1.47-6.35-.78l.62,.62c.29-.95,1.89-.53,2.6-.49,.92,.05,1.86-.13,2.37-.96,.14-.23,.05-.55-.18-.68-1.86-1.04-4.19-.77-5.76,.65l.61-.08c-.33-.22-.09-.73,.14-.93,.4-.33,1.08-.26,1.56-.22,.92,.07,1.83,.16,2.64-.38,.22-.15,.33-.44,.18-.68-.93-1.49-3.29-1.71-4.4-.28l.35-.15c-.39-.05-.55-.58-.59-.9-.07-.55,.15-1.11,.24-1.65,.15-.88,.02-1.69-.56-2.39s-1.37-1.09-2.07-1.6c-.77-.56-1.42-1.29-1.94-2.08-2.44-3.77-1.9-8.47-1.33-12.69,.13-.95,.25-1.98,.71-2.84,.52-.98,1.45-1.42,2.51-1.61,1.96-.34,4.05,.14,5.73,1.19,1.76,1.11,3.01,2.9,3.53,4.9,.54,2.1,.12,4.23-.68,6.21-1.73,4.28-5.28,8.72-3.54,13.59,.22,.6,1.18,.34,.96-.27-1.89-5.26,2.85-10,4.13-14.81s-.96-9.48-5.44-11.26c-2-.79-4.78-1.07-6.7,.09s-2.1,3.91-2.36,5.99c-.59,4.7-.68,10.27,3.09,13.77,.84,.78,2.14,1.26,2.77,2.22,.74,1.13-.33,2.57,.06,3.83,.14,.44,.41,.88,.82,1.12,.51,.3,.82,.19,1.2-.18,.73-.71,2.1-.56,2.64,.31l.18-.68c-1.27,.84-2.96-.29-4.26,.64-.87,.62-1.03,1.99-.09,2.61,.19,.13,.45,.07,.61-.08,1.24-1.12,3.1-1.31,4.55-.5l-.18-.68c-.55,.9-2.1,.32-2.95,.36-.92,.04-1.83,.39-2.12,1.34-.11,.35,.26,.74,.62,.62,1.53-.51,4.05-1.25,5.22,.32l.18-.68c-1.56,.72-3.24,1.06-4.96,1.02-.64-.01-.64,.99,0,1h0Z"/><path class="cls-1" d="M15.14,132.96c1.23-1.71,.35-3.9-.71-5.46-1.15-1.69-3.32-3.65-2.45-5.91,.23-.6-.74-.86-.96-.27-.78,2.06,.56,4.07,1.77,5.64,1.12,1.44,2.8,3.67,1.49,5.48-.38,.52,.49,1.02,.86,.5h0Z"/><path class="cls-1" d="M14.96,131.49c1.87-3.47,2.17-7.68,.74-11.36-.23-.59-1.2-.34-.96,.27,1.33,3.44,1.11,7.34-.64,10.59-.31,.57,.56,1.07,.86,.5h0Z"/><path
    class="cls-1"
    d="M12.03,121.41s.02,0,.03,0l-.13,.02s.02,0,.03,0l-.13-.02h.02l-.12-.05s.01,0,.02,.01l-.1-.08h.01l-.08-.09v.02l-.04-.12s0,.02,.01,.04l-.02-.13s0,.05,0,.08l.02-.13s-.01,.05-.02,.08l.05-.12s-.02,.05-.04,.07l.08-.1s-.02,.03-.04,.04l.1-.08s-.02,.02-.04,.02l.12-.05s-.02,0-.03,0l.13-.02s-.03,0-.04,0l.13,.02s-.02,0-.04-.01l.12,.05s-.05-.03-.08-.05l.1,.08s-.03-.03-.05-.05l.08,.1s-.03-.05-.04-.08l.05,.12s-.03-.09-.04-.14l.02,.13c0-.07,0-.14,0-.22l-.02,.13c.03-.17,.1-.33,.14-.49,.07-.28,.06-.58-.09-.83-.11-.18-.35-.3-.56-.23s-.38,.26-.37,.48l.07,1.55c0,.2,.12,.38,.31,.46,.18,.07,.41,.04,.55-.1,.33-.37,.53-.87,.48-1.37-.01-.14-.05-.25-.15-.35-.09-.09-.23-.15-.35-.15-.25,.01-.53,.22-.5,.5,0,.1,0,.2,0,.3l.02-.13c-.02,.12-.05,.23-.09,.34l.05-.12c-.05,.11-.1,.21-.18,.3l.08-.1s-.04,.05-.06,.08l.85,.35-.07-1.55-.93,.25s.02,.04,.03,.06l-.05-.12s.02,.07,.03,.11l-.02-.13c0,.06,0,.11,0,.17l.02-.13c-.02,.11-.05,.23-.09,.34-.04,.13-.07,.25-.09,.39-.04,.29,.04,.57,.22,.79,.21,.25,.59,.33,.87,.16,.23-.14,.36-.41,.36-.67,0-.41-.37-.73-.77-.6-.25,.08-.43,.35-.35,.62,.08,.25,.35,.43,.62,.35h0Z"/><path
    class="cls-1"
    d="M172.47,119.28c1.83,.57,3.1,2.08,3.97,3.72,.39,.73,.63,1.57,1.14,2.23,.59,.75,1.34,.86,2.25,.74,4.54-.61,9.1-.35,13.52,.88,.37,.1,.71-.25,.62-.62-.65-2.58-2.18-4.77-3.94-6.73-.92-1.02-1.89-2.04-2.91-2.97-.42-.38-.89-.73-1.44-.87-.71-.19-1.47,0-2.18,.12-3.26,.57-6.51,1.14-9.77,1.72-.54,.1-1.12,.21-1.54,.6-.47,.45-.54,1.09-.6,1.7-.07,.75-.14,1.5-.21,2.25l-.11,1.18c-.03,.33-.19,.89-.02,1.2,.14,.25,.48,.44,.69,.64,.3,.28,.59,.56,.87,.86,.53,.56,1.02,1.16,1.47,1.79,.92,1.3,1.65,2.72,2.19,4.22,.13,.37,.71,.54,.91,.12,.82-1.71,1.22-3.55,1.12-5.44-.03-.56-.81-.68-.98-.13-.35,1.1-.6,2.24-.7,3.4-.1,1.09,.48,1.28,1.44,1.35l7.06,.47,3.59,.24c.58,.04,1.16,.08,1.73,.12,.42,.03,.86,.07,1.25-.12,.81-.4,.87-1.53,.98-2.31,.16-1.14,.17-2.29,.05-3.44-.05-.51-.87-.73-.98-.13-.28,1.47-.37,2.95-.23,4.45l.37-.48c-4.89,1.66-10.06-.92-15.01,.46-.23,.06-.35,.26-.37,.48-.17,2.16-.67,4.27-1.45,6.29l.84-.22-2.59-2.57c-.46-.46-.92-.91-1.38-1.37-.17-.17-.46-.38-.52-.62-.07-.26,.06-.54,.15-.78,.75-2.13,.88-4.36,.33-6.55-.12-.46-.87-.49-.96,0-.28,1.45-.53,2.9-.74,4.36-.09,.64-.18,1.27-.26,1.91s-.23,1.34-.15,1.99c.15,1.26,1.31,1.51,2.28,1.99,1.17,.58,2.25,1.2,3.52,1.53,2.69,.69,5.59,.7,8.35,.92l4.45,.36c1.14,.09,2.17-.04,2.43-1.34,.29-1.48,.31-3.06,.46-4.57,.05-.54,.09-1.08-.24-1.54-.28-.41-.72-.53-1.15-.29-.56,.31-.06,1.17,.5,.86-.2,.11-.07,.2-.06,.43,.01,.26-.05,.53-.07,.79l-.16,1.67-.16,1.67c-.05,.55,0,1.32-.72,1.37-1.07,.07-2.22-.16-3.29-.25l-3.59-.29c-2.15-.17-4.38-.22-6.48-.76-1.08-.28-2.02-.76-2.99-1.27-.74-.39-2.1-.61-2.1-1.62,0-1.24,.28-2.54,.46-3.77,.19-1.3,.42-2.6,.67-3.89h-.96c.3,1.2,.39,2.43,.25,3.66-.07,.62-.21,1.24-.4,1.84-.16,.51-.42,1.02-.37,1.57,.04,.44,.3,.78,.59,1.09,.44,.46,.9,.9,1.35,1.35l2.85,2.83c.29,.29,.7,.12,.84-.22,.82-2.11,1.31-4.31,1.48-6.56l-.37,.48c4.94-1.38,10.1,1.21,15.01-.46,.19-.07,.39-.26,.37-.48-.13-1.4-.07-2.8,.2-4.18l-.98-.13c.1,.9,.11,1.81,.03,2.72-.04,.47-.11,.93-.21,1.39-.03,.14-.07,.49-.17,.61-.18,.24-.45,.18-.69,.17-1.86-.09-3.72-.25-5.57-.37l-5.57-.37-1.36-.09c-.16-.01-.56,0-.6-.08-.03-.05,.05-.41,.06-.51,.11-.99,.34-1.95,.64-2.9l-.98-.13c.09,1.71-.24,3.39-.98,4.94l.91,.12c-1.08-3.05-2.93-5.76-5.39-7.85l.15,.35,.3-3.19c.05-.51,.06-1.05,.15-1.55,.1-.58,.43-.77,.97-.89,2.14-.47,4.34-.77,6.5-1.15l3.17-.56c1.14-.2,2.11-.48,3.06,.35,1.33,1.16,2.58,2.52,3.71,3.88,1.33,1.61,2.43,3.4,2.95,5.44l.62-.62c-4.29-1.2-8.81-1.56-13.23-.99-.52,.07-1.23,.3-1.71,.02-.37-.22-.57-.69-.74-1.06-.37-.8-.73-1.59-1.22-2.33-.97-1.46-2.28-2.67-3.99-3.2-.62-.19-.88,.77-.27,.96h0Z"/><path
    class="cls-1"
    d="M191.02,132.27c-.06,1.29-.41,2.53-1.03,3.66l.91,.39,.68-4.7c.04-.27-.07-.54-.35-.62-.24-.07-.57,.08-.62,.35l-.92,5.85c-.09,.54,.59,.89,.91,.39,1.2-1.84,1.79-4.04,1.68-6.23-.03-.64-.98-.65-1,0-.05,1.88-.28,3.75-.72,5.58-.15,.63,.82,.89,.96,.27,.45-1.92,.71-3.88,.75-5.85h-1c.1,2.03-.43,4.02-1.54,5.72l.91,.39,.92-5.85-.96-.27-.68,4.7c-.04,.25,.04,.49,.29,.59,.22,.09,.5,.02,.62-.2,.71-1.28,1.1-2.7,1.16-4.17,.03-.64-.97-.64-1,0h0Z"/><path class="cls-1" d="M177.31,121.15c.64,0,.64-1,0-1s-.64,1,0,1h0Z"/><path
    class="cls-1"
    d="M177.31,121.84l11.49-.61c.53-.03,.72-.9,.13-.98-2.38-.33-4.77-.5-7.17-.45-1.22,.02-2.43,.1-3.64,.23-.83,.09-1.73,.18-2.35,.81-.66,.66-.76,1.77-.97,2.63-.28,1.18-.54,2.36-.79,3.54-.5,2.37-.93,4.75-1.31,7.14-.08,.54,.6,.9,.91,.39,.96-1.55,1.53-3.29,1.67-5.11,.12-1.6-.08-3.24,.22-4.83,.32-1.71,1.36-2.84,3.03-3.33,1.82-.53,3.79-.66,5.66-.94,1.76-.26,4.18-.86,5.61,.58,.45,.46,1.16-.25,.71-.71-1.24-1.25-3.05-1.3-4.7-1.1-2.13,.25-4.29,.56-6.4,.95-1.67,.31-3.32,.94-4.22,2.48s-.84,3.24-.85,4.88c0,1.07,0,2.14-.21,3.19-.25,1.23-.72,2.38-1.37,3.44l.91,.39c.34-2.15,.72-4.3,1.16-6.43,.21-1.03,.43-2.05,.66-3.08s.35-2.08,.75-3,1.74-.88,2.6-.96c1.05-.09,2.1-.15,3.16-.16,2.23-.03,4.45,.11,6.66,.41l.13-.98-11.49,.61c-.64,.03-.64,1.03,0,1h0Z"/><path
    class="cls-1"
    d="M181.94,121.38c.03-2.75-.6-5.47-1.82-7.93-.59-1.19-1.33-2.31-2.18-3.34-.76-.91-1.76-2.09-3.08-1.96-1.24,.12-2.17,1.42-2.69,2.43-.6,1.16-.9,2.5-.79,3.82,.1,1.22,.51,2.46,1.48,3.25,.74,.61,1.66,.87,2.6,.98,2.04,.25,5.02-.5,6.47,1.37,.39,.51,1.1-.2,.71-.71-1.08-1.39-2.91-1.53-4.54-1.56s-3.78,.2-4.94-1.19c-1.56-1.87-.76-5.11,.77-6.74,.48-.51,1.02-.86,1.72-.5,.56,.28,1,.82,1.4,1.28,.79,.92,1.47,1.93,2.04,3.01,1.26,2.4,1.9,5.08,1.87,7.78,0,.64,.99,.64,1,0h0Z"/><path
    class="cls-1"
    d="M182.31,119.43c-.46-2.02-.47-4.12,.03-6.13,.42-1.7,1.21-3.97,3.12-4.44,2.02-.5,2.92,1.52,2.27,3.18s-2.31,3.08-3.55,4.37c-1.46,1.52-2.88,3.09-3.9,4.95-.31,.57,.56,1.07,.86,.5,1.11-2.04,2.73-3.69,4.32-5.35,1.39-1.46,3.24-3.11,3.46-5.23,.2-1.88-1.09-3.63-3.08-3.48-2.13,.16-3.38,2-4.05,3.84-.95,2.58-1.07,5.4-.46,8.07,.14,.63,1.11,.36,.96-.27h0Z"/><path class="cls-1" d="M181.03,121.63c-3.7,2.1-5.69,6.6-4.79,10.75,.14,.63,1.1,.36,.96-.27-.8-3.71,1.04-7.75,4.33-9.62,.56-.32,.06-1.18-.5-.86h0Z"/><path class="cls-1" d="M181.53,120.57c1.99,1.52,3.7,3.4,5.02,5.52,1.04,1.68,2.91,4.74,1.38,6.63-.4,.5,.3,1.21,.71,.71,1.78-2.2,.31-5.21-.91-7.31-1.45-2.5-3.4-4.66-5.69-6.41-.51-.39-1.01,.48-.5,.86h0Z"/></svg>