<?xml version="1.0" encoding="UTF-8"?>
<svg id="Layer_1" xmlns="http://www.w3.org/2000/svg" viewBox="0 0 200 50"><path d="M14.55,8.2v29.97c0,.87,.64,2,1.37,2.47s1.16,.17,1.16-.64V10.03c0-.87-.64-2-1.37-2.47s-1.16-.17-1.16,.64h0Z" style="fill:#2491ff;"/><path
  d="M15.39,8.61c2.88,9.68,6.8,19.03,11.76,27.83,.71,1.26,2.32,4.95,4.36,3.98,1.52-.72,2.38-3.01,2.74-4.52,.99-4.22-.26-8.87-1.27-12.97-1.36-5.55-3.23-10.98-5.53-16.21-.26-.6-.94-1.92-1.77-1.83s-.55,1.3-.33,1.78c1.74,3.95,3.23,8,4.41,12.15,1.04,3.69,2.16,7.6,2.27,11.46,.05,1.67-.16,3.41-.98,4.9-.2,.36-.42,.7-.68,1.02-.12,.15-.24,.29-.38,.42l-.15,.15c-.3,.07-.35,.19-.14,.37l.13,.2-.23-.4c-.11-.2-.23-.4-.35-.6-.31-.53-.61-1.07-.91-1.61-2.08-3.74-3.96-7.58-5.64-11.52-1.89-4.44-3.54-8.99-4.92-13.62-.23-.79-.75-1.96-1.62-2.23-.82-.26-.96,.63-.78,1.25h0Z"
  style="fill:#2491ff;"/><path
  d="M38.05,30.29c-.22-.46,.08,.2,.12,.28,.07,.15,.13,.31,.19,.46,.15,.36,.28,.73,.41,1.1s-.07-.25,.05,.17c.05,.16,.09,.32,.14,.48,.1,.38,.2,.76,.28,1.14,.03,.16,.07,.33,.1,.49,.02,.11,.04,.22,.06,.33-.02-.12-.02-.13,0-.01,.05,.36,.1,.72,.13,1.08,.07,.78,.1,1.56,.08,2.34-.02,.89,.66,1.98,1.37,2.47,.24,.16,.58,.35,.87,.19s.29-.55,.3-.83c.07-3.7-.86-7.29-2.45-10.62-.24-.49-1.11-1.67-1.79-1.29-.71,.4-.07,1.75,.15,2.2h0Z"
  style="fill:#2491ff;"/><path
  d="M37.68,22.89l1.09,.55c.14,.08,.28,.09,.42,.04,.14,0,.24-.08,.31-.21,.08-.15,.12-.3,.11-.47,.02-.21,0-.41-.06-.61l-.15-.46c-.13-.33-.3-.64-.52-.93l-.31-.37c-.18-.2-.4-.35-.64-.46l-1.09-.55c-.14-.08-.28-.09-.42-.04-.14,0-.24,.08-.31,.21-.08,.15-.12,.3-.11,.47-.02,.21,0,.41,.06,.61l.15,.46c.13,.33,.3,.64,.52,.93l.31,.37c.18,.2,.4,.35,.64,.46h0Z"
  style="fill:#2491ff;"/><path
  d="M51.43,28.78c-.45-1.29-1.53-2.55-2.95-2.69-1.01-.1-1.86,.51-2.39,1.32-.61,.94-.93,2.14-1.25,3.2-.37,1.23-.61,2.51-.52,3.8,.19,2.53,1.73,5.25,4.16,6.24,.85,.35,1.84,.42,2.69,0,1-.48,1.54-1.51,1.88-2.51,.92-2.73,.83-5.83,.13-8.6-.2-.79-.71-1.75-1.46-2.14-.67-.35-.98,.04-1,.74-.14,4.3,2.11,8.61,5.45,11.26,.62,.49,1.23,.12,1.16-.64-.08-.95-.63-1.89-1.37-2.47-.09-.07-.17-.14-.26-.21,.12,.1,.1,.09-.05-.04-.12-.11-.24-.23-.36-.34-.14-.14-.26-.28-.39-.42-.09-.1-.07-.08,.05,.06-.07-.09-.14-.17-.2-.26-.1-.13-.2-.26-.29-.4-.06-.09-.12-.18-.18-.27,.14,.22,.15,.23,.03,.03-.08-.15-.16-.29-.24-.43-.05-.1-.1-.19-.15-.29,.1,.21,.12,.24,.05,.11-.13-.33-.27-.66-.39-1,.13,.4-.06-.25-.08-.33-.04-.16-.08-.32-.11-.48,0-.04-.08-.5-.04-.22-.03-.22-.05-.44-.07-.65-.03-.38-.03-.77-.02-1.15l-2.47-1.4c.43,1.68,.51,3.48,.2,5.28-.22,1.26-.64,3.13-2.11,3.45-.28,.06-.62,.05-.89-.01,.1,.02-.23-.08-.27-.09-.06-.02-.12-.05-.19-.08,0,0-.32-.17-.2-.1,.06,.04-.23-.17-.3-.22,.26,.2-.05-.08-.13-.14-.15-.11,.07,.08,.09,.11,0,0-.17-.2-.16-.22,0,0,.25,.45,.07,.09l.11,.23-.05-.13c-.07-.04-.04-.34,0,.02-.01-.09-.05-.19-.06-.28-.02-.09-.03-.23-.04-.42-.02-.42,.03-.84,.1-1.26,.15-.9,.43-1.77,.73-2.63,.25-.73,.54-1.63,1.16-2.13,.27-.22,.55-.33,.89-.33,.16,0,.3,.03,.32,.04,.05,.01,.12,.07,.17,.07-.2-.08-.34-.22-.43-.44-.19-.18-.34-.4-.45-.64,.23,.66,.95,1.85,1.77,1.83,.87-.01,.48-1.36,.33-1.78h0Z"
  style="fill:#2491ff;"/><path
  d="M79.3,17.9c.39-3.71-3.15-7.62-7-7.08-4.14,.58-5.94,5.35-6.88,8.85-.68,2.53-1.03,5.13-1.17,7.74-.12,2.4-.21,4.91,.43,7.25,1.11,4.08,4.47,7.41,8.82,7.66,4.68,.26,8.36-3.54,9.43-7.83,.29-1.16-2.09-4.24-2.5-2.56-.91,3.64-4.11,6.83-8.02,6.79-1.67-.02-3.67-.6-4.76-1.95s-.95-3.79-.93-5.49c.06-4.45,.65-9.55,2.94-13.46,.88-1.51,2.26-3.06,4.07-3.36,.8-.13,1.66,0,2.39,.33,.3,.14,.59,.3,.81,.54-.23-.25-.1-.45-.15,.03-.09,.91,.39,1.93,1.03,2.56,.37,.36,1.37,.94,1.47,0h0Z"
  style="fill:#2491ff;"/><path
  d="M85.84,37.63c-.06,.06-.11,.13-.15,.21-.06,.12-.1,.26-.14,.39-.01,.04-.03,.08-.03,.13-.08,.41-.03,.89,.07,1.28,.11,.43,.25,.76,.46,1.16,.06,.12,.13,.22,.2,.33s.13,.22,.22,.32c.25,.31,.48,.57,.8,.81,.16,.12,.35,.23,.54,.3,.14,.08,.28,.09,.42,.04,.14,0,.24-.08,.31-.21,.08-.15,.12-.3,.11-.47,.02-.21,0-.41-.06-.61-.13-.5-.35-.99-.66-1.39l-.31-.37c-.18-.2-.4-.35-.64-.46-.05-.02-.09-.04-.14-.06l.32,.18s-.09-.06-.14-.1l.32,.28s-.07-.07-.1-.11l.31,.37s-.05-.07-.08-.1l.29,.45s-.04-.08-.06-.11l.23,.48s-.04-.09-.06-.14l.15,.46c-.02-.06-.03-.12-.04-.18l.07,.43c-.01-.07-.01-.14-.01-.21v.37c-.01-.1,0-.2,.04-.29l-.1,.29c.04-.12,.11-.22,.19-.32,.08-.15,.12-.3,.11-.47,.02-.21,0-.41-.06-.61-.06-.25-.14-.48-.26-.7-.1-.25-.24-.48-.4-.69l-.31-.37c-.18-.2-.4-.35-.64-.46l-.29-.07c-.19,0-.34,.08-.44,.24h0Z"
  style="fill:#2491ff;"/><path d="M96.43,12.56l1.42,25.05c.05,.89,.62,1.98,1.37,2.47,.66,.43,1.21,.19,1.16-.64l-1.42-25.05c-.05-.89-.62-1.98-1.37-2.47-.66-.43-1.21-.19-1.16,.64h0Z" style="fill:#2491ff;"/><path d="M100.46,26.86l6.95-3.03c.28-.12,.31-.6,.3-.83-.02-.45-.22-.98-.44-1.37s-.53-.84-.93-1.1c-.26-.17-.55-.33-.87-.19l-6.95,3.03c-.28,.12-.31,.6-.3,.83,.02,.45,.22,.98,.44,1.37s.53,.84,.93,1.1c.26,.17,.55,.33,.87,.19h0Z" style="fill:#2491ff;"/><path d="M105.18,11.47c.39,9.11,1.12,18.19,2.17,27.25,.1,.9,.59,1.96,1.37,2.47,.62,.41,1.26,.21,1.16-.64-1.05-9.05-1.77-18.14-2.17-27.25-.04-.89-.62-1.99-1.37-2.47-.67-.44-1.2-.18-1.16,.64h0Z" style="fill:#2491ff;"/><path
  d="M117.38,26.21c-3.08,.94-5.49,3.58-6.24,6.7-.56,2.32,.29,5.02,2.27,6.43,.75,.54,1.69,.82,2.58,.48,.78-.29,1.36-1.07,1.84-1.72,1.25-1.69,2.08-3.68,2.47-5.74l-2.52-2.2c.32,3.72,2.19,7.15,5.01,9.56,.2,.17,.61,.33,.87,.19s.32-.57,.3-.83c-.08-.98-.64-1.85-1.37-2.47,.24,.2-.14-.14-.15-.15-.12-.11-.23-.22-.34-.34-.09-.1-.18-.2-.27-.3-.15-.16,.17,.23-.04-.06-.09-.13-.19-.25-.29-.39-.04-.06-.37-.5-.07-.08-.17-.23-.3-.51-.43-.77-.04-.07-.07-.14-.11-.22l.09,.19c-.07-.05-.16-.37-.19-.44-.06-.15-.11-.3-.17-.45,.09,.25,.03,.09-.02-.07-.08-.28-.15-.57-.2-.86-.1-.5,.03,.3-.03-.21-.02-.16-.04-.32-.05-.48-.07-.87-.55-1.76-1.21-2.33-.42-.37-1.16-.65-1.31,.14-.27,1.42-.77,2.76-1.51,4.01-.38,.64-.8,1.26-1.29,1.82-.37,.42-.89,.83-1.48,.72-.08-.01-.15-.04-.26-.09,0,0-.13-.09-.07-.04,.14,.12-.04-.05-.05-.06,.07,.08,.13,.15,.19,.24,.06,.09,.11,.19,.16,.29,.09,.17,.02,.13,0-.03,.01,.26,0-.23,0-.25,0-.1,.03-.29,.05-.42,.05-.36,.14-.71,.25-1.05,.37-1.11,1.07-2.2,1.9-3.06,.99-1.02,2.27-1.75,3.62-2.17,.28-.09,.31-.63,.3-.83-.02-.45-.22-.98-.44-1.37-.34-.59-.99-1.54-1.79-1.29h0Z"
  style="fill:#2491ff;"/><path
  d="M125.14,32.69l.49,6.43c.06,.85,.55,1.79,1.21,2.33,.39,.32,1.22,.69,1.31-.14,.37-3.4,1.09-6.77,2.18-10.01,.09-.26,.17-.58,.35-.8,.03-.04,.2-.16,.2-.12,0,0-.51-.4-.55-.46l-.28-.49c-.04-.16-.05-.18-.01-.05,.03,.12,.03,.11,.01-.02l.03,.26c.05,.43,.1,.87,.15,1.3l.64,5.48c.1,.86,.53,1.77,1.21,2.33,.43,.36,1.15,.66,1.31-.14,.67-3.41,1.93-6.64,3.73-9.62l-2.2-1.59c1.35,3.25,1.99,6.79,1.82,10.33-.03,.72,.18,1.35,.57,1.96,.3,.47,.79,1.08,1.4,1.13l1.74,.12c.85,.06,.5-1.38,.33-1.78-.29-.69-.9-1.77-1.77-1.83l-1.74-.12,1.97,3.09c.2-4.4-.54-8.76-2.23-12.83-.18-.44-1.55-2.68-2.2-1.59-1.9,3.13-3.22,6.6-3.93,10.19l2.52,2.2c-.26-2.26-.52-4.52-.79-6.78-.15-1.2-.49-2.35-1.21-3.34-.51-.7-1.5-1.7-2.47-1.24-.81,.39-1,1.57-1.25,2.33-.33,1.03-.63,2.08-.89,3.13-.52,2.11-.89,4.25-1.13,6.4l2.52,2.2-.49-6.43c-.07-.91-.61-1.94-1.37-2.47-.64-.45-1.22-.17-1.16,.64h0Z"
  style="fill:#2491ff;"/><path
  d="M142.46,33.65c.06,.26,.13,.53,.18,.79,.03,.14,.05,.29,.08,.43,.07,.34-.04-.31,.01,.07,.07,.52,.13,1.03,.16,1.55s.03,1.04,.02,1.56c0-.31,0,.1,0,.13,0,.12-.02,.25-.03,.37-.02,.29-.06,.58-.09,.87-.11,.9,.39,1.95,1.03,2.56,.25,.24,.57,.54,.94,.53,.3,0,.5-.24,.54-.53,.31-2.46,.16-4.95-.43-7.36-.12-.49-.36-.99-.66-1.39-.22-.29-.59-.72-.96-.84-.84-.27-.93,.64-.78,1.25h0Z"
  style="fill:#2491ff;"/><path d="M143.71,29.99c1.36,0-.13-3.62-1.43-3.62-1.36,0,.13,3.62,1.43,3.62h0Z" style="fill:#2491ff;"/><path d="M148.49,14.73l.09,24.52c0,.87,.64,2,1.37,2.47,.69,.45,1.17,.17,1.16-.64l-.09-24.52c0-.87-.64-2-1.37-2.47-.69-.45-1.17-.17-1.16,.64h0Z" style="fill:#2491ff;"/><path
  d="M157.47,19.23c-.96,3.12-1.6,6.32-1.87,9.57s-.52,6.7,.89,9.64c1.05,2.17,3.67,4.83,6.3,3.48,1.98-1.01,2.36-3.74,2.47-5.72,.05-.94-.37-1.89-1.03-2.56-.34-.34-1.42-.96-1.47,0-.08,1.47-.22,3.45-1.43,4.48-.65,.55-1.56,.71-2.33,.34s-.85-.97-.94-1.78c-.51-4.93,.46-10.19,1.91-14.89,.35-1.14-1.98-4.24-2.5-2.56h0Z"
  style="fill:#2491ff;"/><path d="M155.44,32.15c2.06-1.8,4.63-3,7.33-3.33,.82-.1,.55-1.27,.33-1.78-.2-.47-.46-.95-.83-1.3-.23-.22-.59-.57-.94-.53-2.89,.35-5.64,1.52-7.84,3.45-.61,.53-.19,1.62,.15,2.2,.24,.41,.53,.84,.93,1.1,.2,.13,.63,.4,.87,.19h0Z" style="fill:#2491ff;"/><path
  d="M168.52,31.9c-.42,1.25-.77,2.49-.79,3.82-.02,1.5,.5,2.93,1.33,4.17,.63,.94,1.57,1.89,2.69,2.22,.98,.29,2.01,.11,2.81-.55,1.57-1.31,2.19-3.55,1.92-5.53-.31-2.29-1.72-5.03-4.09-5.75-1.67-.51-3.89-.06-4.56,1.76-.3,.82,.1,1.81,.62,2.47,.25,.33,.56,.69,.96,.84,.23,.09,.62,.12,.73-.17s.25-.51,.43-.75c.02-.03,.13-.14,0,0,.05-.05,.1-.09,.16-.14,.12-.1,.25-.19,.39-.26,.13-.07,.26-.13,.39-.18,.05-.02,.11-.04,.17-.06,0,0,.27-.07,.13-.04s.14-.02,.13-.02c.06,0,.12-.02,.18-.02,.18-.02,.36-.02,.54-.02,.14,0,.27,.03,.4,.04,.07,0,.27,.06,.01,0,.06,.01,.12,.03,.17,.05,.14,.04,.28,.1,.42,.16,0,0,.15,.08,.16,.08-.19-.11-.22-.12-.09-.04,.04,.02,.07,.05,.11,.08,.13,.08,.19,.23-.08-.09,.04,.05,.11,.11,.16,.15,.29,.26-.25-.36-.03-.05,.04,.06,.08,.12,.12,.17-.33-.41-.19-.31-.12-.18l.05,.09c.1,.19,.07,.13-.09-.19,.01,.06,.06,.15,.08,.2,.14,.35-.09-.39-.02-.05,0,.02,.08,.31,.07,.32,0,0-.05-.42-.02-.1,.02,.18,.04,.36,.04,.55,0,.07,0,.15,0,.22,0-.31,0-.06,0,.02-.02,.2-.05,.4-.09,.6-.04,.18-.09,.36-.13,.54,0,.03-.07,.21,0,.03-.03,.09-.07,.17-.1,.26-.16,.37-.36,.73-.6,1.05-.35,.47-.99,.98-1.56,1.05-.16,.02-.32,.02-.48,0-.04,0-.36-.08-.12,0-.07-.02-.13-.04-.2-.07s-.13-.06-.19-.08c-.31-.12,.21,.18-.05-.03-.06-.04-.12-.08-.17-.13-.28-.21,.24,.22,0,0-.28-.28,.25,.37,.03,.04l-.07-.09c-.12-.18-.09-.12,.1,.17-.01-.05-.08-.16-.11-.19,.31,.47,.12,.24,.05,.08-.16-.36,.08,.43,.02,.04-.01-.08-.05-.4-.02-.08-.02-.24-.04-.48-.03-.73-.01,.25,.03-.22,.03-.22,.02-.15,.04-.29,.06-.44,.05-.27,.11-.53,.17-.8,.14-.55,.32-1.1,.5-1.64,.11-.34-.08-.95-.2-1.25-.18-.45-.48-.96-.83-1.3-.25-.24-.57-.54-.94-.53-.33,0-.44,.25-.54,.53h0Z"
  style="fill:#2491ff;"/><path
  d="M178.78,32.72c.11,1.57-.12,3.16-.69,4.63l2.41,2.85c.13-1.59,.44-3.18,1.01-4.68,.28-.74,.61-1.46,.99-2.15,.35-.65,.69-1.34,1.32-1.74,.03-.03,.06-.04,.09-.03-.36-.37-.68-.77-.98-1.19,.17,.38-.13-.46,.05,.12,.14,.46,.28,.91,.42,1.37l.77,2.54,1.6,5.28c.25,.83,.75,1.9,1.62,2.23,.82,.31,.95-.68,.78-1.25l-1.9-6.25c-.32-1.04-.63-2.09-.95-3.13-.38-1.22-1.02-2.76-2.33-3.22-1.01-.36-1.75,.42-2.25,1.21s-.96,1.69-1.34,2.59c-.76,1.84-1.25,3.77-1.41,5.76-.07,.87,.32,1.72,.87,2.37,.23,.27,1.25,1.2,1.53,.48,.74-1.91,1.06-3.89,.92-5.93-.06-.91-.62-1.95-1.37-2.47-.65-.45-1.22-.17-1.16,.64h0Z"
  style="fill:#2491ff;"/></svg>