<?xml version="1.0" encoding="UTF-8"?><svg id="Layer_1" xmlns="http://www.w3.org/2000/svg" viewBox="0 0 200 200"><path d="M2.88,63.43l1.57,27.31,1.57,27.31,1.57,27.31,.79,13.72,.19,3.37c.06,1,.06,2.03,.23,3.02,.29,1.71,1.52,2.68,3.18,2.95,2.03,.33,4.17,.26,6.23,.34l6.86,.29,13.59,.57,13.72,.58,6.86,.29c1.74,.07,3.89,.44,5.44-.55,1.44-.92,1.73-2.68,1.92-4.25,.26-2.23,.46-4.48,.6-6.72,.28-4.44,.34-8.89,.23-13.34-.23-8.94-1.15-17.84-2.39-26.68s-2.82-17.8-4.36-26.68l-4.65-26.79-1.15-6.61c-.04-.2-.28-.38-.48-.37l-47.48,2.46c-1.55,.08-3.72-.07-4.84,1.26-.79,.93-.77,2.62,.46,3.17,.58,.26,1.09-.6,.5-.86-.53-.24-.61-.81-.41-1.31,.27-.65,1.01-.91,1.65-1.04,.78-.16,1.6-.15,2.39-.19l2.73-.14,10.94-.57,21.75-1.13,12.3-.64-.48-.37,4.55,26.18c1.51,8.69,3.07,17.37,4.45,26.08s2.55,17.47,3.15,26.27,.63,17.49-.26,26.19c-.16,1.59-.08,4.07-1.52,5.14-.76,.57-1.78,.6-2.69,.58-1.07-.02-2.15-.08-3.22-.13l-13.34-.56-26.69-1.12-3.37-.14c-.93-.04-1.89-.03-2.81-.19-.85-.15-1.7-.47-2.11-1.28s-.37-1.92-.42-2.83l-.77-13.34-1.54-26.69-1.54-26.69-1.54-26.69-.37-6.48c-.04-.64-1.04-.64-1,0h0Z" style="fill:#2491ff;"/><path d="M81.92,74.94c-.71,9.21-.23,18.45,.59,27.64s2.01,18.5,2.67,27.78c.37,5.19,.58,10.4,.48,15.61-.01,.64,.99,.64,1,0,.18-9.26-.62-18.49-1.56-27.69s-2.04-18.48-2.4-27.77c-.2-5.19-.17-10.39,.22-15.57,.05-.64-.95-.64-1,0h0Z" style="fill:#2491ff;"/><path d="M84.67,74.5c12.92,1.25,25.89,2.03,38.87,2.33,12.94,.3,25.89,.13,38.82-.51,7.29-.36,14.57-.87,21.83-1.53l-.5-.5c-1.21,9.92-1.93,19.89-2.15,29.87-.22,9.94,.05,19.9,.81,29.82,.43,5.59,1.02,11.17,1.75,16.73l.5-.5-39.91,.3-39.91,.3-22.45,.17,.43,.75,2.28-4.91c.27-.58-.59-1.09-.86-.5l-2.28,4.91c-.15,.33,.03,.76,.43,.75l39.91-.3,39.91-.3,22.45-.17c.24,0,.54-.23,.5-.5-1.32-9.9-2.14-19.87-2.47-29.85s-.17-19.9,.49-29.83c.37-5.6,.89-11.18,1.57-16.75,.03-.25-.25-.52-.5-.5-12.93,1.17-25.9,1.88-38.89,2.1s-25.89-.02-38.81-.74c-7.28-.4-14.56-.96-21.82-1.66-.64-.06-.64,.94,0,1h0Z" style="fill:#2491ff;"/><path d="M33.54,156.59c-2.09,.81-2.96,3.27-2.26,5.33,.83,2.45,3.56,3.55,5.96,3.58s5.6-.95,5.96-3.69-2.41-4.65-4.4-5.81c-1.72-1-5.32-2.11-6.21,.5-.21,.61,.76,.87,.96,.27,.57-1.66,3.32-.65,4.36-.11,.94,.48,1.84,1.11,2.62,1.82,.73,.66,1.46,1.49,1.65,2.49,.45,2.34-2.36,3.38-4.2,3.52-1.93,.14-4.3-.38-5.41-2.13-.98-1.54-.62-4.08,1.23-4.79,.59-.23,.34-1.2-.27-.96h0Z" style="fill:#2491ff;"/><path d="M7.83,67.84c1.78,12.7,2.96,25.47,3.53,38.28,.28,6.36,.41,12.73,.39,19.1s-.31,12.38-.36,18.58c-.05,6.71,.37,13.5,2.55,19.9,.08,.23,.25,.35,.48,.37l11.31,1.05c.22,.02,.42-.17,.48-.37,1.47-4.88,3.51-10.43,8.72-12.34,2.23-.82,4.79-.88,6.84,.45,1.83,1.18,2.76,3.18,3.14,5.26,.45,2.47,.21,5.06-.16,7.53-.05,.32,.13,.63,.48,.63l6.21,.06c1.89,.02,3.82,.15,5.71,.03,1.47-.09,2.76-.64,3.33-2.09,.27-.68,.35-1.41,.43-2.13,.11-.95,.22-1.9,.31-2.86,.77-7.7,.92-15.47,.45-23.2s-1.54-15.36-3.21-22.89-3.96-14.64-5.97-21.95c-2.23-8.14-4.07-16.45-3.97-24.94,0-.29-.23-.48-.5-.5-3.11-.28-6.28,.4-9.01,1.91-1.35,.75-2.58,1.7-3.63,2.83-.52,.55-1,1.15-1.57,1.65-.67,.6-1.45,.97-2.32,1.18-1.85,.45-3.81,.55-5.69,.79l-2.85,.36c-.92,.12-1.86,.3-2.79,.33-.79,.02-1.45-.17-1.46-1.08-.01-.8,.22-1.54,.06-2.34-.24-1.27-1.11-2.32-2.13-3.06-3.31-2.39-7.48-.95-10.9,.39-.59,.23-.33,1.2,.27,.96,3.12-1.23,6.99-2.71,10.05-.54,1.22,.86,1.91,2.11,1.74,3.61-.07,.65-.2,1.33,.09,1.95s.91,.98,1.59,1.07,1.41-.03,2.11-.12l2.97-.38c1.92-.24,3.83-.47,5.75-.73,1.57-.21,3.01-.61,4.21-1.69s2.17-2.41,3.51-3.38c2.88-2.08,6.46-3.03,9.99-2.71l-.5-.5c-.18,14.83,5.4,28.82,8.98,42.99s5.1,29.88,4.12,44.98c-.13,2.07-.31,4.14-.54,6.2-.18,1.68-.06,4.26-2.11,4.77-.91,.22-1.89,.13-2.82,.12l-3.23-.03-6.71-.07,.48,.63c.64-4.4,1.12-10.26-2.74-13.41-2-1.63-4.62-2-7.08-1.43-2.67,.62-4.94,2.23-6.59,4.39-2.03,2.65-3.11,5.86-4.06,9.02l.48-.37-11.31-1.05,.48,.37c-1.96-5.76-2.48-11.84-2.52-17.88s.3-12.32,.35-18.47c.1-12.74-.41-25.48-1.52-38.17-.62-7.13-1.44-14.24-2.43-21.33-.09-.63-1.05-.36-.96,.27h0Z" style="fill:#2491ff;"/><path d="M71.28,74.71c1.57,14.45,2.37,28.97,2.38,43.5,0,7.18-.18,14.36-.55,21.54-.17,3.28-.53,6.58-.58,9.87-.03,2.33,.16,4.8,1.2,6.92,.47,.96,1.15,1.81,2.01,2.43,1.11,.8,2.44,1.07,3.78,1.19,3.52,.32,7.06,.52,10.59,.77,7.29,.51,14.58,.97,21.88,1.39,14.51,.84,29.02,1.51,43.54,2.01,7.3,.25,14.61,.46,21.91,.63,2.91,.07,5.85,.24,8.75-.18,2.38-.34,4.8-1.14,6.51-2.91,2.04-2.11,2.48-5.06,2.72-7.87,.3-3.6,.5-7.21,.64-10.81,.29-7.27,.3-14.56,.12-21.83-.35-14.5-1.46-28.97-2.67-43.42-.15-1.82-.3-3.63-.46-5.45-.11-1.34-.21-2.7-.54-4.01-.28-1.11-.73-2.21-1.51-3.07-.88-.97-2.09-1.41-3.38-1.47-1.73-.09-3.5,.18-5.23,.29-1.82,.12-3.64,.24-5.46,.35-3.64,.22-7.28,.41-10.92,.58-14.48,.67-28.98,.94-43.47,.81-7.22-.06-14.44-.25-21.65-.48-6.83-.21-13.71-.35-20.5,.52-3.24,.42-6.45,1.06-9.58,2.03-.27,.08-.4,.34-.35,.62,.76,3.78,.37,7.7-1.08,11.27-.24,.6,.73,.86,.96,.27,1.51-3.74,1.87-7.85,1.08-11.8l-.35,.62c6.45-1.99,13.21-2.59,19.93-2.66s13.74,.3,20.6,.46c14.16,.32,28.33,.26,42.49-.18,7.12-.22,14.24-.54,21.35-.95,3.55-.21,7.09-.45,10.63-.69,1.44-.09,2.96-.11,4.05,.97,.88,.87,1.28,2.12,1.53,3.31,.29,1.39,.35,2.82,.47,4.23,.15,1.82,.31,3.63,.46,5.45,.3,3.55,.58,7.11,.86,10.66,.54,7.02,1.01,14.05,1.34,21.09,.67,14.21,.77,28.47-.33,42.67-.22,2.85-.52,5.98-2.72,8.05-1.85,1.74-4.49,2.33-6.95,2.53-2.98,.25-6,.05-8.98-.02-3.53-.08-7.06-.18-10.58-.28-14.27-.42-28.54-1.01-42.81-1.75-14.17-.74-28.33-1.59-42.47-2.7-1.42-.11-2.84-.33-3.95-1.29-.8-.69-1.36-1.62-1.72-2.6-.81-2.22-.84-4.68-.71-7.01,.38-6.98,.84-13.94,.99-20.92,.3-14.11-.13-28.24-1.3-42.31-.29-3.46-.62-6.91-.99-10.35-.07-.63-1.07-.64-1,0h0Z" style="fill:#2491ff;"/><path d="M84.06,84.52c5.51,2.23,11.49,2.63,17.35,3,6.41,.41,12.82,.81,19.24,1.15,12.82,.67,25.66,1.07,38.49,.63,7.23-.25,14.44-.77,21.62-1.64,.63-.08,.64-1.08,0-1-12.69,1.54-25.49,1.96-38.26,1.79s-25.51-.94-38.25-1.74c-6.7-.42-13.61-.6-19.92-3.15-.6-.24-.86,.73-.27,.96h0Z" style="fill:#2491ff;"/><path d="M86.79,77.38c-.85,.64-1.31,1.69-1.18,2.75s.87,1.98,1.93,2.34c.92,.31,2.13,.18,2.82-.55,.58-.6,.73-1.51,.55-2.31-.09-.4-.29-.81-.6-1.08-.38-.34-.85-.44-1.35-.35-.27,.05-.42,.37-.35,.62,.08,.28,.35,.4,.62,.35,.12-.02-.1,0,.02,0,.04,0,.07,0,.11,0,.01,0,.12,.01,.04,0s.02,0,.03,0c.03,0,.06,.02,.09,.03-.12-.03-.04-.02,0,0,.02,.01,.04,.02,.06,.03,.12,.06-.02-.04,.03,.02,.04,.04,.08,.08,.12,.12,.08,.07-.05-.09,0,0,.02,.03,.04,.06,.06,.09,.03,.05,.06,.1,.08,.16,.06,.11-.03-.1,0,.02,0,.04,.02,.07,.04,.11,.02,.07,.04,.15,.05,.22,0,.03,0,.05,.01,.08-.02-.13,0,0,0,.02,0,.16,0,.31,0,.47,.02-.13-.02,.07-.02,.1-.02,.08-.04,.15-.07,.23,0,.02-.02,.05-.03,.07,.05-.12,0,0-.01,.02-.04,.07-.08,.13-.12,.2-.06,.1,.07-.06-.02,.02-.03,.03-.05,.06-.08,.08-.02,.02-.04,.03-.06,.05-.08,.09,.08-.04-.02,.02-.07,.05-.15,.09-.23,.13-.01,0-.11,.06-.05,.03-.06,.03-.13,.05-.2,.07-.32,.1-.67,.11-.98,.04-.72-.15-1.27-.61-1.45-1.28-.01-.05-.03-.1-.04-.15,0-.03-.01-.07-.02-.1,0,.04,0,.04,0,0-.01-.11-.02-.23-.01-.34,0-.03,0-.07,0-.1,0-.03,0-.07,0-.1,0,.05,0,.04,0-.02,.02-.1,.04-.21,.07-.31,.06-.2,.12-.33,.26-.54,.06-.09,.05-.08,.15-.19,.04-.04,.07-.08,.11-.11,.01-.01,.15-.13,.1-.09,.22-.16,.33-.43,.18-.68-.12-.21-.47-.34-.68-.18h0Z" style="fill:#2491ff;"/><path d="M92.05,79.29c-.15,.63-.16,1.27-.03,1.9,.06,.3,.16,.59,.29,.87,.12,.27,.28,.65,.52,.83s.62,.15,.9,.11,.54-.09,.8-.2c.5-.2,.97-.52,1.32-.93,.7-.82,1-1.99,.48-2.98-.42-.79-1.28-1.22-2.14-1.32-.94-.11-1.96,.29-2.38,1.18-.12,.24-.07,.54,.18,.68,.22,.13,.57,.07,.68-.18,.03-.06,.06-.12,.09-.17,.01-.02,.03-.04,.04-.06,.07-.1-.07,.06,.02-.02,.04-.03,.07-.07,.1-.11,.03-.03,.06-.05,.08-.07-.06,.05-.03,.02,.02-.01s.09-.06,.14-.09c.04-.02,.18-.08,.07-.04,.12-.04,.24-.08,.36-.1,.02,0,.15-.02,.02,0,.03,0,.05,0,.08,0,.06,0,.13,0,.2,0,.06,0,.12,0,.18,0,.03,0,.07,0,.1,0,.11,0-.09-.02,.02,0s.23,.05,.35,.08c.06,.02,.13,.04,.19,.07-.11-.05,.08,.04,.11,.06,.05,.03,.1,.06,.15,.09,.02,.02,.18,.14,.09,.06,.1,.08,.19,.17,.27,.27-.08-.09,.04,.06,.06,.09,.03,.05,.06,.1,.08,.15,.01,.03,.04,.11,0,0,0,.03,.02,.05,.03,.07,.03,.08,.05,.17,.06,.25,.02,.09,0-.11,0,.04,0,.03,0,.07,0,.1,0,.08,0,.17,0,.25,0,.1,0,.04,0,.02,0,.05-.02,.1-.03,.15-.02,.08-.04,.16-.07,.24,0-.01-.06,.14-.03,.08s-.04,.09-.04,.08c-.03,.07-.07,.13-.11,.2-.11,.18-.14,.21-.28,.36-.23,.24-.51,.44-.82,.57-.12,.05-.34,.11-.51,.14-.09,.02,.12,0-.05,0-.05,0-.1,0-.15,0-.03,0-.07,0-.1,0-.02,0-.21-.02-.13,0l.3,.23c-.56-.8-.76-1.77-.54-2.69,.06-.26-.08-.54-.35-.62s-.55,.09-.62,.35h0Z" style="fill:#2491ff;"/><path d="M100.06,79.08c.8-.56,1.82-.49,2.65,.01s1.34,1.41,1.06,2.37-1.28,1.75-2.26,1.83-1.81-.55-2.11-1.43c-.17-.51-.21-1.04-.1-1.53s.36-.96,.75-1.25c.22-.16,.33-.43,.18-.68-.12-.21-.47-.34-.68-.18-2.23,1.66-1.44,5.77,1.48,6.07,1.4,.14,2.86-.75,3.48-1.98s.31-2.8-.79-3.71-2.89-1.27-4.16-.37c-.22,.16-.32,.44-.18,.68,.13,.22,.46,.34,.68,.18h0Z" style="fill:#2491ff;"/><path d="M18.81,93.21l-.79,23.45c-.01,.34,.33,.55,.63,.48,5.55-1.16,11.18-1.87,16.84-2.1,2.79-.11,5.59-.12,8.38,0,.93,.04,2.22,.22,2.71-.8,.23-.5,.14-1.07,.1-1.6l-.16-2.24-1.25-17.28c-.1-1.45-.21-2.9-.31-4.35-.07-.96-.15-2.04-.97-2.67-.9-.69-2.2-.44-3.25-.38-1.43,.09-2.86,.19-4.28,.3-6.32,.5-12.61,1.29-18.86,2.35-.27,.05-.41,.37-.35,.62,.39,1.61,.64,3.24,.74,4.9,.04,.64,1.04,.64,1,0-.11-1.74-.37-3.47-.78-5.16l-.35,.62c5.28-.89,10.58-1.59,15.91-2.08,2.61-.24,5.22-.44,7.83-.58,.51-.03,1.16-.13,1.63,.12,.53,.28,.64,.93,.69,1.47,.13,1.29,.19,2.58,.28,3.87l1.16,16.04,.3,4.1c.03,.4,.28,1.43-.13,1.71s-1.32,.08-1.78,.06c-2.63-.1-5.27-.11-7.9,0-5.87,.22-11.72,.95-17.47,2.15l.63,.48,.79-23.45c.02-.64-.98-.64-1,0h0Z" style="fill:#2491ff;"/><path d="M42.08,87.74c-7.57,6.92-14.26,14.8-19.81,23.42-1.56,2.42-3.03,4.9-4.4,7.43-.31,.57,.56,1.07,.86,.5,4.85-8.91,10.86-17.17,17.84-24.54,2-2.11,4.08-4.15,6.22-6.11,.48-.43-.23-1.14-.71-.71h0Z" style="fill:#2491ff;"/><path d="M20.19,87.92c8.56,6.91,12.29,17.74,19.53,25.79,1.99,2.21,4.25,4.17,6.81,5.7,.55,.33,1.06-.53,.5-.86-9.42-5.64-13.53-16.44-19.94-24.82-1.83-2.39-3.85-4.62-6.19-6.51-.5-.4-1.21,.3-.71,.71h0Z" style="fill:#2491ff;"/><path d="M28.75,133.62c4.55-3.05,10.24-4.24,15.64-3.28,.63,.11,.9-.85,.27-.96-5.66-1.01-11.63,.17-16.41,3.38-.53,.36-.03,1.22,.5,.86h0Z" style="fill:#2491ff;"/><path d="M27.19,138.89c3.23-1.62,7.06-1.36,10.56-1.39l11.76-.11c.64,0,.64-1.01,0-1l-12.25,.11c-3.56,.03-7.31-.12-10.57,1.52-.58,.29-.07,1.15,.5,.86h0Z" style="fill:#2491ff;"/><path d="M98.94,99.04c.74,9.24,.92,18.53,.53,27.79-.03,.64,.97,.64,1,0,.39-9.27,.21-18.55-.53-27.79-.05-.64-1.05-.64-1,0h0Z" style="fill:#2491ff;"/><path d="M101.42,98.2c6.63-1.58,13.5-2.06,20.28-1.38,.77,.08,1.58,.12,2.34,.29,.37,.08,.73,.18,.72,.64,0,.43-.23,.91-.35,1.32-.47,1.59-.88,3.2-1.22,4.82-.67,3.21-1.09,6.47-1.24,9.75-.09,1.89-.09,3.79,0,5.68,.05,.95,.58,3.5-.72,3.9-.61,.19-.35,1.15,.27,.96,1.23-.38,1.55-1.66,1.56-2.82,.02-1.7-.18-3.42-.17-5.12,.01-3.74,.37-7.48,1.08-11.16,.36-1.86,.8-3.7,1.34-5.52,.19-.67,.56-1.43,.43-2.13s-.63-1.06-1.26-1.24c-.74-.2-1.54-.23-2.3-.31-1.03-.11-2.06-.2-3.1-.25-1.83-.1-3.66-.12-5.49-.06-4.19,.14-8.35,.71-12.43,1.68-.63,.15-.36,1.11,.27,.96h0Z" style="fill:#2491ff;"/><path d="M100.13,128.83c8.62,.31,17.26,.32,25.88,.05v-1l-1.37,.08c-.64,.04-.64,1.04,0,1l1.37-.08c.64-.04,.65-1.02,0-1-8.63,.28-17.26,.26-25.88-.05-.64-.02-.64,.98,0,1h0Z" style="fill:#2491ff;"/><path d="M122.92,97.04c-5.02,9.49-11.42,18.23-18.97,25.87-2.11,2.13-4.3,4.17-6.58,6.12-.49,.42,.22,1.12,.71,.71,8.16-7,15.28-15.19,21.07-24.24,1.65-2.58,3.2-5.24,4.63-7.95,.3-.57-.56-1.07-.86-.5h0Z" style="fill:#2491ff;"/><path d="M100.32,99.63c3.38,4.56,6.77,9.11,10.18,13.64,1.71,2.27,3.42,4.53,5.13,6.79,1.43,1.89,2.83,3.84,4.47,5.56s3.67,3.24,6.05,3.84c.62,.16,.89-.81,.27-.96-4.46-1.13-7.23-5.39-9.84-8.84-3.28-4.32-6.54-8.66-9.79-13.01-1.87-2.5-3.74-5.01-5.6-7.52-.38-.51-1.25-.01-.86,.5h0Z" style="fill:#2491ff;"/><path d="M136.95,106.37c3.4,.62,6.39-1.6,9.52-2.51s6.58-1.07,9.51,.51c.57,.31,1.07-.56,.5-.86-2.85-1.54-6.16-1.6-9.26-.88-1.61,.37-3.12,.99-4.63,1.64-1.69,.73-3.51,1.48-5.38,1.13-.63-.11-.9,.85-.27,.96h0Z" style="fill:#2491ff;"/><path d="M140.36,113.47c4.85,1.12,9.86,1.42,14.81,.89,.63-.07,.64-1.07,0-1-4.86,.52-9.77,.24-14.54-.85-.63-.14-.89,.82-.27,.96h0Z" style="fill:#2491ff;"/><path d="M134.98,125.68c10.59-1.28,21.49-2.57,32.08-.6,2.96,.55,5.86,1.37,8.66,2.48,.6,.24,.86-.73,.27-.96-10.08-4-21.14-3.92-31.78-2.94-3.08,.29-6.16,.65-9.23,1.02-.63,.08-.64,1.08,0,1h0Z" style="fill:#2491ff;"/></svg>